<svg width="16" height="7" viewBox="0 0 16 7" fill="none" xmlns="http://www.w3.org/2000/svg">
<path d="M13.045 1.08091C14.2836 1.63946 15.3512 2.478 15.9272 3.66564C15.9872 3.7893 16.0109 3.92742 15.9956 4.064C15.9803 4.20058 15.9266 4.33003 15.8408 4.43734C15.7549 4.54466 15.6404 4.62546 15.5105 4.67037C15.3806 4.71528 15.2407 4.72246 15.1069 4.6911C10.7745 3.67582 6.39196 5.42128 4.08141 6.374C2.63123 6.97182 1.22323 6.48382 0.495229 5.50055C0.116631 4.99942 -0.0544787 4.37176 0.0174105 3.74782C0.264683 1.70782 2.82905 0.835095 4.52068 0.451095C7.2705 -0.172177 10.4465 -0.0929048 13.045 1.08019V1.08091Z" fill="white"/>
</svg>
