<svg width="21" height="18" viewBox="0 0 21 18" fill="none" xmlns="http://www.w3.org/2000/svg">
<path fill-rule="evenodd" clip-rule="evenodd" d="M0.530296 1.95852C0.0431764 2.79981 -0.115701 3.79149 0.0842183 4.74284C0.284138 5.6942 0.828738 6.53805 1.61328 7.1121C2.39782 7.68616 3.36691 7.94988 4.33416 7.85255C5.30141 7.75523 6.19852 7.30372 6.85296 6.58486L7.8469 7.15894C7.87504 7.26249 8.01236 7.28951 8.08328 7.20734C8.25287 7.00848 8.44048 6.82687 8.64609 6.66253C8.96802 6.40364 8.98378 5.86446 8.62583 5.65847L7.69719 5.12154C7.9876 4.19676 7.927 3.19738 7.52697 2.31446C7.12693 1.43154 6.41553 0.727029 5.52876 0.335604C4.642 -0.0558219 3.64207 -0.106699 2.72016 0.1927C1.79824 0.492098 1.01901 1.12077 0.531422 1.95852M2.81645 5.87797C2.55836 5.73123 2.33183 5.53488 2.14993 5.30024C1.96802 5.06559 1.83433 4.79728 1.75654 4.51076C1.67875 4.22424 1.6584 3.92515 1.69667 3.63073C1.73494 3.33631 1.83106 3.05237 1.97952 2.79525C2.12797 2.53814 2.32581 2.31292 2.56166 2.13258C2.7975 1.95223 3.06669 1.82032 3.35372 1.74443C3.64076 1.66854 3.93997 1.65018 4.23413 1.6904C4.52829 1.73062 4.81159 1.82863 5.06771 1.97878C5.58057 2.27944 5.95368 2.77075 6.10563 3.34548C6.25758 3.92022 6.17603 4.53173 5.87879 5.04656C5.58154 5.5614 5.09272 5.93776 4.519 6.09352C3.94528 6.24928 3.33325 6.1718 2.81645 5.87797ZM10.0835 7.10491C9.64906 7.28805 9.26217 7.56802 8.95239 7.92346C8.6426 8.27889 8.4181 8.7004 8.29602 9.1558L7.84802 10.8285L6.85296 11.4026C6.19732 10.6878 5.30112 10.24 4.3359 10.1447C3.37067 10.0495 2.40422 10.3135 1.62152 10.8863C0.838824 11.4591 0.294853 12.3005 0.0937241 13.2493C-0.107405 14.1981 0.0484372 15.1878 0.531422 16.0289C1.01692 16.8705 1.7963 17.5031 2.71982 17.805C3.64333 18.1069 4.64584 18.0569 5.53474 17.6646C6.42363 17.2723 7.13621 16.5653 7.53556 15.6796C7.93492 14.7938 7.99288 13.7918 7.69831 12.8659L19.72 5.92524C19.8643 5.84153 19.9805 5.71697 20.054 5.56728C20.1275 5.41759 20.1551 5.24948 20.1332 5.08416C20.1112 4.91884 20.0409 4.76371 19.9309 4.63835C19.8209 4.51298 19.6762 4.423 19.5152 4.37975L18.7239 4.16701C18.0592 3.98919 17.3542 4.03791 16.7202 4.30546L10.0835 7.10491ZM1.99249 15.1847C1.84234 14.9286 1.74433 14.6453 1.70411 14.3511C1.66389 14.0569 1.68225 13.7577 1.75814 13.4707C1.83402 13.1837 1.96594 12.9145 2.14628 12.6786C2.32663 12.4428 2.55184 12.2449 2.80896 12.0965C3.06608 11.948 3.35002 11.8519 3.64444 11.8136C3.93886 11.7754 4.23794 11.7957 4.52447 11.8735C4.81099 11.9513 5.0793 12.085 5.31394 12.2669C5.54859 12.4488 5.74493 12.6753 5.89167 12.9334C6.1855 13.4502 6.26299 14.0623 6.10723 14.636C5.95147 15.2097 5.57511 15.6985 5.06027 15.9958C4.54544 16.293 3.93393 16.3745 3.35919 16.2226C2.78445 16.0706 2.29315 15.6975 1.99249 15.1847Z" fill="#26272B"/>
<path d="M12.9696 11.1216C12.8788 11.174 12.8044 11.2506 12.7549 11.343C12.7053 11.4353 12.6825 11.5397 12.6891 11.6443C12.6956 11.7489 12.7313 11.8496 12.792 11.935C12.8527 12.0205 12.936 12.0873 13.0326 12.1279L16.7179 13.6824C17.3518 13.9499 18.0568 13.9987 18.7215 13.8208L19.514 13.6081C19.6749 13.5646 19.8193 13.4744 19.9291 13.3489C20.0388 13.2234 20.1089 13.0682 20.1306 12.9029C20.1523 12.7376 20.1245 12.5696 20.0508 12.4201C19.9772 12.2705 19.8609 12.1462 19.7166 12.0626L15.8107 9.80685C15.7251 9.75745 15.6281 9.73145 15.5293 9.73145C15.4305 9.73145 15.3334 9.75745 15.2479 9.80685L12.9696 11.1216Z" fill="#26272B"/>
</svg>
