<svg width="16" height="11" viewBox="0 0 16 11" fill="none" xmlns="http://www.w3.org/2000/svg">
<path d="M14.4 2.80039C13.96 2.80039 13.6 2.44039 13.6 2.00039C13.6 1.56039 13.96 1.20039 14.4 1.20039V0.400391H1.6V1.20039C2.04 1.20039 2.4 1.56039 2.4 2.00039C2.4 2.44039 2.04 2.80039 1.6 2.80039H0V8.40039H1.6C2.04 8.40039 2.4 8.76039 2.4 9.20039C2.4 9.64039 2.04 10.0004 1.6 10.0004V10.8004H14.4V10.0004C13.96 10.0004 13.6 9.64039 13.6 9.20039C13.6 8.76039 13.96 8.40039 14.4 8.40039H16V2.80039H14.4ZM14.4 6.00039H13.6V6.80039H12V6.00039H9.128C8.96 6.46439 8.52 6.80039 8 6.80039C7.48 6.80039 7.04 6.46439 6.872 6.00039H4V6.80039H2.4V6.00039H1.6V5.20039H2.4V4.40039H4V5.20039H6.872C7.04 4.73639 7.48 4.40039 8 4.40039C8.52 4.40039 8.96 4.73639 9.128 5.20039H12V4.40039H13.6V5.20039H14.4V6.00039Z" fill="white"/>
</svg>
