<svg width="11" height="18" viewBox="0 0 11 18" fill="none" xmlns="http://www.w3.org/2000/svg">
<path d="M4.52501 18V15.85C3.64168 15.65 2.87935 15.2667 2.23801 14.7C1.59668 14.1333 1.12568 13.3333 0.825012 12.3L2.67501 11.55C2.92501 12.35 3.29601 12.9583 3.78801 13.375C4.28001 13.7917 4.92568 14 5.72501 14C6.40835 14 6.98768 13.846 7.46301 13.538C7.93835 13.23 8.17568 12.7507 8.17501 12.1C8.17501 11.5167 7.99168 11.0543 7.62501 10.713C7.25835 10.3717 6.40835 9.984 5.07501 9.55C3.64168 9.1 2.65835 8.56267 2.12501 7.938C1.59168 7.31333 1.32501 6.55067 1.32501 5.65C1.32501 4.56667 1.67501 3.725 2.37501 3.125C3.07501 2.525 3.79168 2.18333 4.52501 2.1V0H6.52501V2.1C7.35835 2.23333 8.04601 2.53767 8.58801 3.013C9.13001 3.48833 9.52568 4.06733 9.77501 4.75L7.92501 5.55C7.72501 5.01667 7.44168 4.61667 7.07501 4.35C6.70835 4.08333 6.20835 3.95 5.57501 3.95C4.84168 3.95 4.28335 4.11267 3.90001 4.438C3.51668 4.76333 3.32501 5.16733 3.32501 5.65C3.32501 6.2 3.57501 6.63333 4.07501 6.95C4.57501 7.26667 5.44168 7.6 6.67501 7.95C7.82501 8.28333 8.69601 8.81267 9.28801 9.538C9.88001 10.2633 10.1757 11.1007 10.175 12.05C10.175 13.2333 9.82501 14.1333 9.12501 14.75C8.42501 15.3667 7.55835 15.75 6.52501 15.9V18H4.52501Z" fill="white"/>
</svg>
